<?xml version="1.0" standalone="no"?>
<!DOCTYPE svg PUBLIC "-//W3C//DTD SVG 20010904//EN"
 "http://www.w3.org/TR/2001/REC-SVG-20010904/DTD/svg10.dtd">
<svg version="1.0" xmlns="http://www.w3.org/2000/svg"
 width="838.000000pt" height="838.000000pt" viewBox="0 0 838.000000 838.000000"
 preserveAspectRatio="xMidYMid meet">
<metadata>
Created by potrace 1.11, written by Peter Selinger 2001-2013
</metadata>
<g transform="translate(0.000000,838.000000) scale(0.100000,-0.100000)"
fill="#000000" stroke="none">
<path d="M4434 7670 c-5 -5 -316 -11 -799 -13 -724 -3 -795 -4 -850 -21 -192
-57 -347 -210 -408 -401 l-22 -70 0 -1520 c0 -1248 2 -1530 14 -1575 49 -199
199 -361 396 -428 l80 -27 895 -5 895 -5 70 -24 c153 -51 264 -119 370 -226
86 -88 154 -200 197 -325 31 -91 32 -102 33 -250 0 -180 -11 -235 -79 -375
-79 -166 -201 -291 -367 -379 -113 -60 -207 -85 -365 -96 -73 -5 -161 -16
-195 -25 -187 -48 -350 -206 -410 -395 -25 -78 -29 -218 -10 -300 55 -233 250
-410 492 -449 35 -6 66 -16 71 -23 4 -8 8 -9 8 -2 0 7 44 13 123 17 1100 56
1955 989 1914 2087 -7 173 -24 293 -66 455 -80 306 -247 610 -463 840 l-59 64
78 89 c487 553 638 1296 407 1992 -261 786 -979 1332 -1809 1377 -66 3 -123
10 -126 14 -3 5 -9 5 -15 -1z m207 -1213 c164 -38 306 -116 423 -232 97 -96
162 -202 208 -335 31 -91 32 -102 33 -250 0 -180 -11 -235 -79 -375 -102 -213
-295 -376 -526 -446 -73 -23 -88 -23 -603 -27 -394 -2 -532 0 -543 9 -20 16
-21 1648 -1 1668 19 20 997 9 1088 -12z"/>
<path d="M2885 3344 c-11 -2 -45 -9 -75 -15 -204 -40 -390 -226 -441 -439 -31
-132 -6 -307 63 -427 135 -239 432 -354 693 -269 298 96 466 398 393 706 -46
198 -229 381 -429 429 -54 13 -175 22 -204 15z"/>
<path d="M2858 1900 c-233 -42 -411 -194 -479 -410 -25 -78 -29 -218 -10 -300
62 -261 298 -450 566 -453 50 0 115 5 145 12 201 48 370 207 432 406 30 96 30
233 0 330 -60 195 -230 358 -423 404 -67 16 -177 21 -231 11z"/>
</g>
</svg>
